<svg width="296" height="72" viewBox="0 0 296 72" fill="none" xmlns="http://www.w3.org/2000/svg">
<path d="M0.484375 5.11328C0.484375 3.30859 1.32812 2.03125 3.01562 1.28125C3.53125 1.04687 4.08203 0.929688 4.66797 0.929688C5.25391 0.929688 5.79297 1.04687 6.28516 1.28125C6.80078 1.49219 7.24609 1.78516 7.62109 2.16016C8.44141 2.98047 8.85156 3.96484 8.85156 5.11328V18.9648C8.85156 19.4102 8.96875 19.7148 9.20312 19.8789C9.46094 20.0195 9.69531 20.0898 9.90625 20.0898C10.1406 20.0898 10.3516 19.9961 10.5391 19.8086C10.7266 19.5977 11.0312 19.2812 11.4531 18.8594C12.8359 17.4766 14.582 16.7852 16.6914 16.7852C19.1758 16.7852 21.2734 17.8047 22.9844 19.8438C24.6484 21.8828 25.4805 24.3555 25.4805 27.2617V44.6289C25.4805 47.4648 24.4609 49.9023 22.4219 51.9414C20.3828 53.9805 17.9453 55 15.1094 55H4.70312C3.53125 55 2.64062 54.707 2.03125 54.1211C1 53.1367 0.484375 52.0352 0.484375 50.8164V5.11328ZM17.1484 27.2969C17.1484 25.5156 16.3047 24.25 14.6172 23.5C14.125 23.2891 13.4453 23.1836 12.5781 23.1836C11.7109 23.1836 10.8906 23.5469 10.1172 24.2734C9.34375 25 8.92188 25.9141 8.85156 27.0156V48.6719H13C14.1719 48.6719 15.0508 48.3789 15.6367 47.793C16.6445 46.7852 17.1484 45.6836 17.1484 44.4883V27.2969ZM54.0273 18.3672C54.6367 17.7812 55.1875 17.3828 55.6797 17.1719C56.1953 16.9375 56.7344 16.8203 57.2969 16.8203C57.8828 16.8203 58.4219 16.9258 58.9141 17.1367C59.4297 17.3477 59.875 17.6406 60.25 18.0156C61.0703 18.8359 61.4805 19.8086 61.4805 20.9336V51.4844C61.4805 52.6328 61.1875 53.5234 60.6016 54.1562C59.5938 55.1875 58.6328 55.7031 57.7188 55.7031C56.8281 55.7031 56.1602 55.5977 55.7148 55.3867C55.2695 55.1992 54.9062 54.9766 54.625 54.7188C54.1797 54.3438 53.8633 53.9688 53.6758 53.5938C53.5117 53.1953 53.3594 52.9023 53.2188 52.7148C53.0781 52.5273 52.8555 52.4336 52.5508 52.4336C52.2695 52.4336 52.0352 52.5391 51.8477 52.75C51.6602 52.9375 51.3555 53.2422 50.9336 53.6641C49.5273 55.0234 47.9805 55.7031 46.293 55.7031C44.6289 55.7031 43.2344 55.4336 42.1094 54.8945C40.9844 54.332 40 53.5703 39.1562 52.6094C37.375 50.5703 36.4844 48.1328 36.4844 45.2969V20.9336C36.4844 19.1523 37.3281 17.8984 39.0156 17.1719C39.5078 16.9375 40.0352 16.8203 40.5977 16.8203C41.1836 16.8203 41.7344 16.9258 42.25 17.1367C42.7656 17.3477 43.2109 17.6406 43.5859 18.0156C44.4062 18.8359 44.8164 19.8086 44.8164 20.9336V45.1914C44.8164 46.3633 45.1094 47.2422 45.6953 47.8281C46.7266 48.8594 47.8047 49.375 48.9297 49.375C50.7812 49.375 52.0703 48.6484 52.7969 47.1953C53.0312 46.7266 53.1484 46.1992 53.1484 45.6133V20.9336C53.1484 19.7852 53.4414 18.9297 54.0273 18.3672ZM77.0898 55C76.2227 55 75.4727 54.6953 74.8398 54.0859C74.207 53.4766 73.8906 52.8438 73.8906 52.1875C73.8906 51.5312 73.9727 51.0156 74.1367 50.6406C74.3242 50.2422 74.5703 49.8906 74.875 49.5859C75.5078 48.9531 76.2461 48.6367 77.0898 48.6367H84.8594C86.2891 48.6367 87.4375 48.2383 88.3047 47.4414C89.1719 46.6211 89.6055 45.6133 89.6055 44.418C89.6055 43.2227 89.2773 42.2617 88.6211 41.5352C87.9648 40.7852 87.1562 40.2578 86.1953 39.9531L79.8672 38.1953C77.6875 37.5391 75.9531 36.3203 74.6641 34.5391C73.3516 32.7344 72.6953 30.8242 72.6953 28.8086C72.6953 26.793 72.9883 25.1289 73.5742 23.8164C74.1836 22.5039 74.9922 21.3789 76 20.4414C78.0859 18.4961 80.6641 17.5234 83.7344 17.5234H92.3125C93.2031 17.5234 93.9414 17.8398 94.5273 18.4727C95.1133 19.082 95.4062 19.832 95.4062 20.7227C95.4062 21.6133 95.1133 22.3633 94.5273 22.9727C93.9414 23.5586 93.2031 23.8516 92.3125 23.8516H84.4023C83.207 23.8516 82.2695 24.2031 81.5898 24.9062C80.9336 25.6094 80.6055 26.4414 80.6055 27.4023C80.6055 28.9023 81.4375 30.0273 83.1016 30.7773L89.9922 32.7812C93.6953 34.0234 96.1562 36.3672 97.375 39.8125C97.7734 40.9844 97.9727 42.332 97.9727 43.8555C97.9727 45.3789 97.6562 46.832 97.0234 48.2148C96.4141 49.5977 95.5938 50.793 94.5625 51.8008C92.3828 53.9336 89.8164 55 86.8633 55H77.0898ZM125.992 18.3672C126.602 17.7812 127.152 17.3828 127.645 17.1719C128.16 16.9375 128.699 16.8203 129.262 16.8203C129.848 16.8203 130.398 16.9258 130.914 17.1367C131.43 17.3477 131.875 17.6406 132.25 18.0156C133.07 18.8359 133.48 19.8086 133.48 20.9336V61.2578C133.48 64.1406 132.461 66.5898 130.422 68.6055C128.336 70.6445 125.863 71.6641 123.004 71.6641H116.781C115.891 71.6641 115.129 71.3594 114.496 70.75C113.887 70.1406 113.582 69.3906 113.582 68.5C113.582 67.6094 113.887 66.8477 114.496 66.2148C115.129 65.6055 115.891 65.3008 116.781 65.3008H120.93C122.125 65.3008 123.016 65.0078 123.602 64.4219C124.609 63.4141 125.113 62.3359 125.113 61.1875V53.5586C125.113 53.1133 124.984 52.8203 124.727 52.6797C124.492 52.5156 124.258 52.4336 124.023 52.4336C123.789 52.4336 123.578 52.5391 123.391 52.75L122.793 53.3125C121.199 54.9062 119.359 55.7031 117.273 55.7031C114.742 55.7031 112.645 54.6719 110.98 52.6094C109.316 50.5703 108.484 48.1328 108.484 45.2969V20.9336C108.484 19.1523 109.328 17.8984 111.016 17.1719C111.508 16.9375 112.035 16.8203 112.598 16.8203C113.184 16.8203 113.734 16.9258 114.25 17.1367C114.766 17.3477 115.211 17.6406 115.586 18.0156C116.406 18.8359 116.816 19.8086 116.816 20.9336V45.1914C116.816 46.3398 117.109 47.2188 117.695 47.8281C118.68 48.8594 119.605 49.375 120.473 49.375C121.34 49.375 122.02 49.293 122.512 49.1289C123.027 48.9414 123.484 48.6836 123.883 48.3555C124.703 47.6523 125.113 46.7383 125.113 45.6133V20.9336C125.113 19.7852 125.406 18.9297 125.992 18.3672ZM152.57 54.1914C151.984 54.7539 151.434 55.1406 150.918 55.3516C150.426 55.5859 149.887 55.7031 149.301 55.7031C148.738 55.7031 148.199 55.5977 147.684 55.3867C147.191 55.1758 146.758 54.8828 146.383 54.5078C145.562 53.6875 145.152 52.7148 145.152 51.5898V21.0391C145.152 19.8906 145.445 19 146.031 18.3672C147.039 17.3359 147.988 16.8203 148.879 16.8203C149.793 16.8203 150.473 16.9141 150.918 17.1016C151.363 17.2891 151.738 17.5234 152.043 17.8047C152.441 18.1562 152.734 18.5313 152.922 18.9297C153.133 19.3281 153.297 19.6211 153.414 19.8086C153.555 19.9961 153.766 20.0898 154.047 20.0898C154.352 20.0898 154.609 19.9961 154.82 19.8086L155.418 19.2109C157.129 17.6172 158.84 16.8203 160.551 16.8203C163.574 16.8203 166.07 18.0625 168.039 20.5469C168.227 20.8047 168.461 20.9336 168.742 20.9336C169.234 20.9336 169.727 20.5586 170.219 19.8086C170.734 19.0352 171.555 18.3437 172.68 17.7344C173.805 17.125 175.117 16.8203 176.617 16.8203C178.117 16.8203 179.477 17.1016 180.695 17.6641C181.938 18.2031 183.016 18.9531 183.93 19.9141C185.852 21.9297 186.812 24.3672 186.812 27.2266V51.5898C186.812 53.3711 185.969 54.625 184.281 55.3516C183.766 55.5859 183.215 55.7031 182.629 55.7031C182.066 55.7031 181.527 55.5977 181.012 55.3867C180.52 55.1758 180.086 54.8828 179.711 54.5078C178.914 53.6641 178.516 52.6914 178.516 51.5898V27.332C178.516 26.1602 178.223 25.2812 177.637 24.6953C176.605 23.6641 175.656 23.1484 174.789 23.1484C173.922 23.1484 173.242 23.2656 172.75 23.5C172.258 23.7109 171.812 24.0156 171.414 24.4141C170.594 25.2344 170.184 26.1836 170.184 27.2617V51.5898C170.184 53.3711 169.352 54.625 167.688 55.3516C167.172 55.5859 166.621 55.7031 166.035 55.7031C165.473 55.7031 164.934 55.5977 164.418 55.3867C163.902 55.1758 163.457 54.8828 163.082 54.5078C162.262 53.6875 161.852 52.7148 161.852 51.5898V27.332C161.852 26.1602 161.559 25.2812 160.973 24.6953C159.941 23.6641 158.863 23.1484 157.738 23.1484C155.863 23.1484 154.562 23.875 153.836 25.3281C153.602 25.7969 153.484 26.3242 153.484 26.9102V51.5898C153.484 52.7383 153.18 53.6055 152.57 54.1914ZM217.188 48.6367C218.078 48.6367 218.828 48.9531 219.438 49.5859C220.047 50.2188 220.352 50.9805 220.352 51.8711C220.352 52.7383 220.047 53.4766 219.438 54.0859C218.828 54.6953 218.078 55 217.188 55H208.891C206.031 55 203.582 53.9805 201.543 51.9414C199.504 49.9023 198.484 47.4531 198.484 44.5938V27.332C198.484 24.1445 199.562 21.6016 201.719 19.7031C203.969 17.7812 207.062 16.8203 211 16.8203C214.891 16.8203 217.961 17.7812 220.211 19.7031C222.391 21.625 223.48 24.1914 223.48 27.4023V37.2461C223.48 38.418 223.188 39.2969 222.602 39.8828C221.594 40.8906 220.492 41.3945 219.297 41.3945H206.816V44.5234C206.816 45.7188 207.109 46.5977 207.695 47.1602C208.727 48.1445 209.816 48.6367 210.965 48.6367H217.188ZM215.148 27.332C215.148 26.1602 214.855 25.2812 214.27 24.6953C213.238 23.6641 212.148 23.1484 211 23.1484C209.828 23.1484 208.938 23.4531 208.328 24.0625C207.32 25.0703 206.816 26.1602 206.816 27.332V35.2422H215.148V27.332ZM239.09 55C238.223 55 237.473 54.6953 236.84 54.0859C236.207 53.4766 235.891 52.8438 235.891 52.1875C235.891 51.5312 235.973 51.0156 236.137 50.6406C236.324 50.2422 236.57 49.8906 236.875 49.5859C237.508 48.9531 238.246 48.6367 239.09 48.6367H246.859C248.289 48.6367 249.438 48.2383 250.305 47.4414C251.172 46.6211 251.605 45.6133 251.605 44.418C251.605 43.2227 251.277 42.2617 250.621 41.5352C249.965 40.7852 249.156 40.2578 248.195 39.9531L241.867 38.1953C239.688 37.5391 237.953 36.3203 236.664 34.5391C235.352 32.7344 234.695 30.8242 234.695 28.8086C234.695 26.793 234.988 25.1289 235.574 23.8164C236.184 22.5039 236.992 21.3789 238 20.4414C240.086 18.4961 242.664 17.5234 245.734 17.5234H254.312C255.203 17.5234 255.941 17.8398 256.527 18.4727C257.113 19.082 257.406 19.832 257.406 20.7227C257.406 21.6133 257.113 22.3633 256.527 22.9727C255.941 23.5586 255.203 23.8516 254.312 23.8516H246.402C245.207 23.8516 244.27 24.2031 243.59 24.9062C242.934 25.6094 242.605 26.4414 242.605 27.4023C242.605 28.9023 243.438 30.0273 245.102 30.7773L251.992 32.7812C255.695 34.0234 258.156 36.3672 259.375 39.8125C259.773 40.9844 259.973 42.332 259.973 43.8555C259.973 45.3789 259.656 46.832 259.023 48.2148C258.414 49.5977 257.594 50.793 256.562 51.8008C254.383 53.9336 251.816 55 248.863 55H239.09ZM275.09 55C274.223 55 273.473 54.6953 272.84 54.0859C272.207 53.4766 271.891 52.8438 271.891 52.1875C271.891 51.5312 271.973 51.0156 272.137 50.6406C272.324 50.2422 272.57 49.8906 272.875 49.5859C273.508 48.9531 274.246 48.6367 275.09 48.6367H282.859C284.289 48.6367 285.438 48.2383 286.305 47.4414C287.172 46.6211 287.605 45.6133 287.605 44.418C287.605 43.2227 287.277 42.2617 286.621 41.5352C285.965 40.7852 285.156 40.2578 284.195 39.9531L277.867 38.1953C275.688 37.5391 273.953 36.3203 272.664 34.5391C271.352 32.7344 270.695 30.8242 270.695 28.8086C270.695 26.793 270.988 25.1289 271.574 23.8164C272.184 22.5039 272.992 21.3789 274 20.4414C276.086 18.4961 278.664 17.5234 281.734 17.5234H290.312C291.203 17.5234 291.941 17.8398 292.527 18.4727C293.113 19.082 293.406 19.832 293.406 20.7227C293.406 21.6133 293.113 22.3633 292.527 22.9727C291.941 23.5586 291.203 23.8516 290.312 23.8516H282.402C281.207 23.8516 280.27 24.2031 279.59 24.9062C278.934 25.6094 278.605 26.4414 278.605 27.4023C278.605 28.9023 279.438 30.0273 281.102 30.7773L287.992 32.7812C291.695 34.0234 294.156 36.3672 295.375 39.8125C295.773 40.9844 295.973 42.332 295.973 43.8555C295.973 45.3789 295.656 46.832 295.023 48.2148C294.414 49.5977 293.594 50.793 292.562 51.8008C290.383 53.9336 287.816 55 284.863 55H275.09Z" fill="#DBE2EF"/>
</svg>
