<svg id="visual" viewBox="0 0 900 600" width="900" height="600" xmlns="http://www.w3.org/2000/svg" xmlns:xlink="http://www.w3.org/1999/xlink" version="1.1"><rect width="900" height="600" fill="#1c1e1f"/><g><g transform="translate(393 462)"><path d="M0 -147L127.3 -73.5L127.3 73.5L0 147L-127.3 73.5L-127.3 -73.5Z" fill="none" stroke="#8A2BE2" stroke-width="2"/></g><g transform="translate(578 34)"><path d="M0 -135L116.9 -67.5L116.9 67.5L0 135L-116.9 67.5L-116.9 -67.5Z" fill="none" stroke="#8A2BE2" stroke-width="2"/></g><g transform="translate(52 154)"><path d="M0 -136L117.8 -68L117.8 68L0 136L-117.8 68L-117.8 -68Z" fill="none" stroke="#8A2BE2" stroke-width="2"/></g><g transform="translate(679 329)"><path d="M0 -119L103.1 -59.5L103.1 59.5L0 119L-103.1 59.5L-103.1 -59.5Z" fill="none" stroke="#8A2BE2" stroke-width="2"/></g><g transform="translate(13 516)"><path d="M0 -127L110 -63.5L110 63.5L0 127L-110 63.5L-110 -63.5Z" fill="none" stroke="#8A2BE2" stroke-width="2"/></g><g transform="translate(872 87)"><path d="M0 -101L87.5 -50.5L87.5 50.5L0 101L-87.5 50.5L-87.5 -50.5Z" fill="none" stroke="#8A2BE2" stroke-width="2"/></g></g></svg>