<svg width="723" height="474" viewBox="0 0 723 474" fill="none" xmlns="http://www.w3.org/2000/svg">
<path d="M358.61 62H315.61C313.092 61.9971 310.677 60.9953 308.896 59.2144C307.115 57.4334 306.113 55.0187 306.11 52.5V9.5C306.113 6.98132 307.115 4.56662 308.896 2.78564C310.677 1.00467 313.092 0.00285847 315.61 0H358.61C361.129 0.00286111 363.544 1.00467 365.325 2.78564C367.106 4.56662 368.107 6.98132 368.11 9.5V52.5C368.107 55.0187 367.106 57.4334 365.325 59.2144C363.544 60.9953 361.129 61.9971 358.61 62V62ZM315.61 2C313.622 2.00221 311.715 2.7931 310.309 4.19914C308.903 5.60519 308.112 7.51156 308.11 9.5V52.5C308.112 54.4884 308.903 56.3948 310.309 57.8008C311.715 59.2069 313.622 59.9978 315.61 60H358.61C360.599 59.9978 362.505 59.2069 363.911 57.8008C365.317 56.3948 366.108 54.4884 366.11 52.5V9.5C366.108 7.51156 365.317 5.60519 363.911 4.19914C362.505 2.7931 360.599 2.00221 358.61 2H315.61Z" fill="#CCCCCC"/>
<path d="M350.11 50H324.11C323.315 49.9991 322.552 49.6828 321.99 49.1204C321.427 48.5579 321.111 47.7954 321.11 47V15C321.111 14.2046 321.427 13.4421 321.99 12.8796C322.552 12.3172 323.315 12.0009 324.11 12H342.95C343.633 12.0006 344.296 12.2339 344.829 12.6616L351.989 18.4155C352.34 18.6959 352.623 19.0517 352.817 19.4566C353.011 19.8615 353.111 20.3049 353.11 20.7539V47C353.109 47.7954 352.793 48.5579 352.231 49.1204C351.668 49.6828 350.906 49.9991 350.11 50V50ZM324.11 14C323.845 14.0003 323.591 14.1058 323.404 14.2933C323.216 14.4807 323.111 14.7349 323.11 15V47C323.111 47.2651 323.216 47.5193 323.404 47.7067C323.591 47.8942 323.845 47.9997 324.11 48H350.11C350.375 47.9997 350.629 47.8942 350.817 47.7067C351.004 47.5193 351.11 47.2651 351.11 47V20.7539C351.111 20.6043 351.077 20.4565 351.013 20.3216C350.948 20.1866 350.854 20.068 350.737 19.9746L343.576 14.2202C343.398 14.0778 343.177 14.0002 342.95 14H324.11Z" fill="#CCCCCC"/>
<path d="M345.11 26H329.11C328.845 26 328.591 25.8946 328.403 25.7071C328.216 25.5196 328.11 25.2652 328.11 25C328.11 24.7348 328.216 24.4804 328.403 24.2929C328.591 24.1054 328.845 24 329.11 24H345.11C345.375 24 345.63 24.1054 345.817 24.2929C346.005 24.4804 346.11 24.7348 346.11 25C346.11 25.2652 346.005 25.5196 345.817 25.7071C345.63 25.8946 345.375 26 345.11 26Z" fill="#CCCCCC"/>
<path d="M345.11 32H329.11C328.845 32 328.591 31.8946 328.403 31.7071C328.216 31.5196 328.11 31.2652 328.11 31C328.11 30.7348 328.216 30.4804 328.403 30.2929C328.591 30.1054 328.845 30 329.11 30H345.11C345.375 30 345.63 30.1054 345.817 30.2929C346.005 30.4804 346.11 30.7348 346.11 31C346.11 31.2652 346.005 31.5196 345.817 31.7071C345.63 31.8946 345.375 32 345.11 32Z" fill="#CCCCCC"/>
<path d="M345.11 38H329.11C328.845 38 328.591 37.8946 328.403 37.7071C328.216 37.5196 328.11 37.2652 328.11 37C328.11 36.7348 328.216 36.4804 328.403 36.2929C328.591 36.1054 328.845 36 329.11 36H345.11C345.375 36 345.63 36.1054 345.817 36.2929C346.005 36.4804 346.11 36.7348 346.11 37C346.11 37.2652 346.005 37.5196 345.817 37.7071C345.63 37.8946 345.375 38 345.11 38Z" fill="#CCCCCC"/>
<path d="M460.61 62H417.61C415.092 61.9971 412.677 60.9953 410.896 59.2144C409.115 57.4334 408.113 55.0187 408.11 52.5V9.5C408.113 6.98132 409.115 4.56662 410.896 2.78564C412.677 1.00467 415.092 0.00285847 417.61 0H460.61C463.129 0.00286111 465.544 1.00467 467.325 2.78564C469.106 4.56662 470.107 6.98132 470.11 9.5V52.5C470.107 55.0187 469.106 57.4334 467.325 59.2144C465.544 60.9953 463.129 61.9971 460.61 62V62ZM417.61 2C415.622 2.00221 413.715 2.7931 412.309 4.19914C410.903 5.60519 410.112 7.51156 410.11 9.5V52.5C410.112 54.4884 410.903 56.3948 412.309 57.8008C413.715 59.2069 415.622 59.9978 417.61 60H460.61C462.599 59.9978 464.505 59.2069 465.911 57.8008C467.317 56.3948 468.108 54.4884 468.11 52.5V9.5C468.108 7.51156 467.317 5.60519 465.911 4.19914C464.505 2.7931 462.599 2.00221 460.61 2H417.61Z" fill="#CCCCCC"/>
<path d="M453.11 42H425.11C424.315 41.9991 423.552 41.6828 422.99 41.1204C422.427 40.5579 422.111 39.7954 422.11 39V23C422.111 22.2046 422.427 21.4421 422.99 20.8796C423.552 20.3172 424.315 20.0009 425.11 20H453.11C453.906 20.0009 454.668 20.3172 455.231 20.8796C455.793 21.4421 456.109 22.2046 456.11 23V39C456.109 39.7954 455.793 40.5579 455.231 41.1204C454.668 41.6828 453.906 41.9991 453.11 42V42ZM425.11 22C424.845 22.0003 424.591 22.1057 424.403 22.2932C424.216 22.4807 424.11 22.7349 424.11 23V39C424.11 39.2651 424.216 39.5193 424.403 39.7068C424.591 39.8943 424.845 39.9997 425.11 40H453.11C453.375 39.9997 453.63 39.8943 453.817 39.7068C454.005 39.5193 454.11 39.2651 454.11 39V23C454.11 22.7349 454.005 22.4807 453.817 22.2932C453.63 22.1057 453.375 22.0003 453.11 22H425.11Z" fill="#CCCCCC"/>
<path d="M439.11 33.6382C438.548 33.6389 437.998 33.4821 437.52 33.1855L422.58 23.8481C422.356 23.7071 422.197 23.483 422.138 23.2249C422.078 22.9667 422.124 22.6957 422.264 22.4711C422.405 22.2466 422.629 22.0868 422.886 22.027C423.144 21.9671 423.416 22.012 423.641 22.1518L438.581 31.4892C438.74 31.5879 438.924 31.6401 439.111 31.6401C439.298 31.6401 439.481 31.5879 439.641 31.4892L454.58 22.1518C454.805 22.012 455.076 21.9671 455.334 22.027C455.592 22.0868 455.816 22.2466 455.956 22.4711C456.097 22.6957 456.142 22.9667 456.083 23.2249C456.024 23.483 455.865 23.7071 455.641 23.8481L440.701 33.1855C440.224 33.4823 439.672 33.6391 439.11 33.6382V33.6382Z" fill="#CCCCCC"/>
<path d="M256.61 62H213.61C211.092 61.9971 208.677 60.9953 206.896 59.2144C205.115 57.4334 204.113 55.0187 204.11 52.5V9.5C204.113 6.98132 205.115 4.56662 206.896 2.78564C208.677 1.00467 211.092 0.00285847 213.61 0H256.61C259.129 0.00286111 261.544 1.00467 263.325 2.78564C265.106 4.56662 266.107 6.98132 266.11 9.5V52.5C266.107 55.0187 265.106 57.4334 263.325 59.2144C261.544 60.9953 259.129 61.9971 256.61 62V62ZM213.61 2C211.622 2.00221 209.715 2.7931 208.309 4.19914C206.903 5.60519 206.112 7.51156 206.11 9.5V52.5C206.112 54.4884 206.903 56.3948 208.309 57.8008C209.715 59.2069 211.622 59.9978 213.61 60H256.61C258.599 59.9978 260.505 59.2069 261.911 57.8008C263.317 56.3948 264.108 54.4884 264.11 52.5V9.5C264.108 7.51156 263.317 5.60519 261.911 4.19914C260.505 2.7931 258.599 2.00221 256.61 2H213.61Z" fill="#CCCCCC"/>
<path d="M249.11 42H221.11C220.315 41.9991 219.552 41.6828 218.99 41.1204C218.427 40.5579 218.111 39.7954 218.11 39V23C218.111 22.2046 218.427 21.4421 218.99 20.8796C219.552 20.3172 220.315 20.0009 221.11 20H249.11C249.906 20.0009 250.668 20.3172 251.231 20.8796C251.793 21.4421 252.109 22.2046 252.11 23V39C252.109 39.7954 251.793 40.5579 251.231 41.1204C250.668 41.6828 249.906 41.9991 249.11 42V42ZM221.11 22C220.845 22.0003 220.591 22.1057 220.403 22.2932C220.216 22.4807 220.11 22.7349 220.11 23V39C220.11 39.2651 220.216 39.5193 220.403 39.7068C220.591 39.8943 220.845 39.9997 221.11 40H249.11C249.375 39.9997 249.63 39.8943 249.817 39.7068C250.005 39.5193 250.11 39.2651 250.11 39V23C250.11 22.7349 250.005 22.4807 249.817 22.2932C249.63 22.1057 249.375 22.0003 249.11 22H221.11Z" fill="#CCCCCC"/>
<path d="M244.672 42H224.548C224.197 42.0001 223.852 41.9078 223.548 41.7322C223.244 41.5567 222.991 41.3042 222.816 41.0002C222.64 40.6961 222.548 40.3511 222.548 40C222.548 39.6489 222.641 39.304 222.816 39L228.878 28.5C229.053 28.196 229.306 27.9435 229.61 27.7679C229.914 27.5924 230.259 27.5 230.61 27.5C230.961 27.5 231.306 27.5924 231.61 27.7679C231.914 27.9435 232.167 28.196 232.342 28.5L236.257 35.2812L238.525 31.3525C238.701 31.0485 238.953 30.796 239.257 30.6205C239.561 30.4449 239.906 30.3525 240.257 30.3525C240.609 30.3525 240.953 30.4449 241.258 30.6205C241.562 30.796 241.814 31.0485 241.99 31.3525L246.405 39C246.58 39.3041 246.673 39.649 246.673 40.0001C246.673 40.3512 246.58 40.6961 246.405 41.0002C246.229 41.3042 245.977 41.5567 245.672 41.7322C245.368 41.9077 245.023 42.0001 244.672 42ZM244.672 40L240.257 32.3525L237.124 37.7812C237.036 37.9333 236.909 38.0596 236.757 38.1473C236.605 38.2351 236.433 38.2813 236.257 38.2812V38.2812C236.082 38.2813 235.909 38.2351 235.757 38.1473C235.605 38.0596 235.479 37.9333 235.391 37.7812L230.61 29.5L224.548 40H244.672Z" fill="#CCCCCC"/>
<path d="M246.11 27.9998C247.215 27.9998 248.11 27.1043 248.11 25.9998C248.11 24.8952 247.215 23.9998 246.11 23.9998C245.006 23.9998 244.11 24.8952 244.11 25.9998C244.11 27.1043 245.006 27.9998 246.11 27.9998Z" fill="#CCCCCC"/>
<path d="M228.61 156H185.61C183.092 155.997 180.677 154.995 178.896 153.214C177.115 151.433 176.113 149.019 176.11 146.5V103.5C176.113 100.981 177.115 98.5666 178.896 96.7856C180.677 95.0047 183.092 94.0029 185.61 94H228.61C231.129 94.0029 233.544 95.0047 235.325 96.7856C237.106 98.5666 238.107 100.981 238.11 103.5V146.5C238.107 149.019 237.106 151.433 235.325 153.214C233.544 154.995 231.129 155.997 228.61 156V156ZM185.61 96C183.622 96.0022 181.715 96.7931 180.309 98.1992C178.903 99.6052 178.112 101.512 178.11 103.5V146.5C178.112 148.488 178.903 150.395 180.309 151.801C181.715 153.207 183.622 153.998 185.61 154H228.61C230.599 153.998 232.505 153.207 233.911 151.801C235.317 150.395 236.108 148.488 236.11 146.5V103.5C236.108 101.512 235.317 99.6052 233.911 98.1992C232.505 96.7931 230.599 96.0022 228.61 96H185.61Z" fill="#3F3D56"/>
<path d="M221.11 138.5H193.11C192.315 138.499 191.552 138.183 190.99 137.62C190.427 137.058 190.111 136.295 190.11 135.5V114.5C190.111 113.705 190.427 112.942 190.99 112.38C191.552 111.817 192.315 111.501 193.11 111.5H200.993C201.505 111.498 202.01 111.628 202.457 111.878C202.905 112.129 203.28 112.49 203.548 112.927L205.746 116.5H221.11C221.906 116.501 222.668 116.817 223.231 117.38C223.793 117.942 224.109 118.705 224.11 119.5V135.5C224.109 136.295 223.793 137.058 223.231 137.62C222.668 138.183 221.906 138.499 221.11 138.5V138.5Z" fill="#6C63FF"/>
<path d="M101.165 162.381C113.962 162.381 124.336 152.007 124.336 139.21C124.336 126.412 113.962 116.038 101.165 116.038C88.3673 116.038 77.993 126.412 77.993 139.21C77.993 152.007 88.3673 162.381 101.165 162.381Z" fill="#FFB8B8"/>
<path d="M92.7986 276.32C92.5068 276.32 92.2136 276.308 91.9192 276.282C90.4619 276.16 89.0466 275.732 87.7663 275.025C86.486 274.318 85.3695 273.349 84.4899 272.181C83.6103 271.013 82.9875 269.672 82.6623 268.246C82.3371 266.82 82.3168 265.342 82.6028 263.907C82.6704 263.574 82.7554 263.245 82.8575 262.921L48.6581 222.473C47.5438 221.145 46.8874 219.493 46.7863 217.762C46.6853 216.031 47.145 214.313 48.0973 212.865L48.1593 212.789L78.9429 182.435C79.7799 181.61 80.7721 180.959 81.8622 180.519C82.9523 180.079 84.1187 179.86 85.294 179.874C86.4693 179.887 87.6303 180.134 88.7099 180.599C89.7895 181.064 90.7663 181.738 91.5838 182.582C92.4014 183.427 93.0436 184.425 93.4732 185.519C93.9029 186.613 94.1115 187.781 94.0871 188.956C94.0627 190.132 93.8057 191.29 93.331 192.366C92.8563 193.441 92.1732 194.411 91.3213 195.221L69.0258 216.417L93.4339 255.592C93.8962 255.616 94.3562 255.673 94.8105 255.761C97.3353 256.265 99.5828 257.689 101.116 259.757C102.65 261.825 103.361 264.389 103.11 266.951C102.859 269.514 101.665 271.891 99.7595 273.623C97.8541 275.354 95.3732 276.316 92.7986 276.32L92.7986 276.32Z" fill="#FFB8B8"/>
<path d="M139.328 461.701H150.895L156.397 417.088L139.326 417.089L139.328 461.701Z" fill="#FFB8B8"/>
<path d="M136.378 457.925L159.156 457.924H159.157C161.063 457.924 162.951 458.3 164.712 459.029C166.473 459.758 168.074 460.828 169.422 462.176C170.77 463.524 171.839 465.124 172.568 466.885C173.298 468.646 173.673 470.534 173.673 472.44V472.912L136.379 472.913L136.378 457.925Z" fill="#2F2E41"/>
<path d="M24.366 445.71L34.304 451.627L61.857 416.11L47.189 407.377L24.366 445.71Z" fill="#FFB8B8"/>
<path d="M23.7629 440.956L43.3345 452.608L43.3353 452.609C44.9733 453.584 46.4031 454.872 47.5431 456.4C48.6831 457.928 49.511 459.666 49.9796 461.513C50.4481 463.361 50.5481 465.283 50.2738 467.169C49.9996 469.056 49.3565 470.87 48.3811 472.508L48.1398 472.913L16.0953 453.834L23.7629 440.956Z" fill="#2F2E41"/>
<path d="M153.624 445.944H140.672C139.623 445.946 138.611 445.558 137.832 444.857C137.052 444.156 136.56 443.19 136.451 442.147L123.394 319.41C123.361 319.101 123.227 318.811 123.013 318.586C122.799 318.36 122.517 318.212 122.21 318.162C121.904 318.113 121.589 318.166 121.316 318.313C121.042 318.46 120.824 318.694 120.696 318.977L97.141 371.135L55.4374 439.138C54.8977 440.01 54.062 440.658 53.0833 440.964C52.1047 441.27 51.0487 441.213 50.1085 440.804L33.4483 433.474C32.8974 433.231 32.4044 432.874 32.0019 432.427C31.5994 431.979 31.2966 431.451 31.1137 430.878C30.9307 430.305 30.8718 429.699 30.9407 429.101C31.0096 428.503 31.2049 427.926 31.5135 427.41L69.8505 363.218L81.6082 309.132C77.9103 285.677 93.7632 250.806 93.924 250.456L94.0025 250.286L137.67 233.218L137.889 233.486C155.11 290 165.604 350.818 157.856 442.054C157.76 443.112 157.274 444.097 156.491 444.817C155.709 445.536 154.687 445.938 153.624 445.944V445.944Z" fill="#2F2E41"/>
<path d="M92.2432 256.001L92.0398 255.573C91.9426 255.369 82.2329 234.89 74.7479 213.002C73.3093 208.769 72.7655 204.284 73.1509 199.83C73.5362 195.376 74.8423 191.051 76.9864 187.128C79.1584 183.165 82.1299 179.696 85.7125 176.941C89.2952 174.186 93.4109 172.205 97.7991 171.124V171.124C105.417 169.298 113.437 170.27 120.399 173.862C127.361 177.454 132.8 183.427 135.727 190.694C141.664 205.541 139.772 221.388 137.991 233.851L137.956 234.101L137.729 234.209L92.2432 256.001Z" fill="#6C63FF"/>
<path d="M129.26 126.12H92.4658V110.082C100.542 106.874 108.444 104.145 113.221 110.082C117.475 110.082 121.554 111.772 124.562 114.78C127.57 117.787 129.26 121.867 129.26 126.12V126.12Z" fill="#2F2E41"/>
<path d="M90.4287 107.252C68.4327 107.252 62.2759 134.823 62.2759 150.377C62.2759 159.052 66.1989 162.154 72.3635 163.204L74.5405 151.593L79.6395 163.704C81.3711 163.712 83.1903 163.679 85.0763 163.644L86.8051 160.084L90.6604 163.58C106.101 163.603 118.581 165.854 118.581 150.377C118.581 134.823 113.182 107.252 90.4287 107.252Z" fill="#2F2E41"/>
<path d="M188.199 138.109C188.339 138.365 188.469 138.629 188.587 138.899C189.179 140.237 189.482 141.684 189.475 143.146C189.469 144.609 189.154 146.053 188.55 147.385C187.947 148.717 187.069 149.907 185.973 150.876C184.878 151.845 183.59 152.571 182.194 153.008C181.87 153.108 181.54 153.192 181.206 153.257L162.107 202.662C161.476 204.277 160.34 205.645 158.87 206.564C157.399 207.482 155.672 207.902 153.944 207.761L153.848 207.743L112.451 195.281C111.326 194.942 110.278 194.384 109.37 193.638C108.461 192.892 107.71 191.973 107.158 190.935C106.607 189.897 106.266 188.76 106.157 187.59C106.047 186.42 106.17 185.239 106.52 184.117C106.869 182.995 107.437 181.953 108.191 181.051C108.945 180.149 109.87 179.406 110.913 178.864C111.956 178.322 113.096 177.992 114.267 177.893C115.439 177.794 116.618 177.928 117.737 178.288L147.027 187.692L169.704 147.49C169.503 147.073 169.333 146.642 169.193 146.2C168.424 143.743 168.597 141.088 169.676 138.751C170.756 136.414 172.665 134.561 175.034 133.553C177.403 132.544 180.062 132.452 182.495 133.294C184.928 134.136 186.961 135.852 188.199 138.109H188.199Z" fill="#FFB8B8"/>
<path d="M486.61 156H443.61C441.092 155.997 438.677 154.995 436.896 153.214C435.115 151.433 434.113 149.019 434.11 146.5V103.5C434.113 100.981 435.115 98.5666 436.896 96.7856C438.677 95.0047 441.092 94.0029 443.61 94H486.61C489.129 94.0029 491.544 95.0047 493.325 96.7856C495.106 98.5666 496.107 100.981 496.11 103.5V146.5C496.107 149.019 495.106 151.433 493.325 153.214C491.544 154.995 489.129 155.997 486.61 156V156ZM443.61 96C441.622 96.0022 439.715 96.7931 438.309 98.1992C436.903 99.6052 436.112 101.512 436.11 103.5V146.5C436.112 148.488 436.903 150.395 438.309 151.801C439.715 153.207 441.622 153.998 443.61 154H486.61C488.599 153.998 490.505 153.207 491.911 151.801C493.317 150.395 494.108 148.488 494.11 146.5V103.5C494.108 101.512 493.317 99.6052 491.911 98.1992C490.505 96.7931 488.599 96.0022 486.61 96H443.61Z" fill="#3F3D56"/>
<path d="M465.11 125.5C463.33 125.5 461.59 124.972 460.11 123.983C458.63 122.994 457.477 121.589 456.795 119.944C456.114 118.3 455.936 116.49 456.283 114.744C456.63 112.998 457.488 111.395 458.746 110.136C460.005 108.877 461.609 108.02 463.354 107.673C465.1 107.326 466.91 107.504 468.554 108.185C470.199 108.866 471.605 110.02 472.593 111.5C473.582 112.98 474.11 114.72 474.11 116.5C474.108 118.886 473.159 121.174 471.471 122.861C469.784 124.548 467.496 125.497 465.11 125.5V125.5Z" fill="#6C63FF"/>
<path d="M474.096 142.5H456.124C455.14 142.553 454.175 142.214 453.438 141.559C452.702 140.903 452.255 139.984 452.193 139C452.193 132.659 457.987 127.5 465.11 127.5C472.233 127.5 478.028 132.659 478.028 139C477.966 139.984 477.518 140.903 476.782 141.559C476.046 142.214 475.081 142.553 474.096 142.5Z" fill="#6C63FF"/>
<path d="M601.057 461.529L588.798 461.528L582.965 414.24L601.06 414.241L601.057 461.529Z" fill="#A0616A"/>
<path d="M580.04 458.025H603.684V472.912H565.154C565.154 470.957 565.539 469.021 566.287 467.215C567.035 465.409 568.131 463.768 569.514 462.386C570.896 461.003 572.537 459.907 574.343 459.159C576.15 458.41 578.085 458.025 580.04 458.025Z" fill="#2F2E41"/>
<path d="M690.811 427.625L681.753 435.888L645.573 404.885L658.941 392.69L690.811 427.625Z" fill="#A0616A"/>
<path d="M672.923 439.202L690.391 423.267L700.424 434.265L671.958 460.233C670.641 458.789 669.62 457.099 668.956 455.26C668.291 453.422 667.995 451.47 668.085 449.517C668.175 447.565 668.648 445.648 669.478 443.878C670.308 442.108 671.479 440.519 672.923 439.202Z" fill="#2F2E41"/>
<path d="M589.002 450.714C587.92 450.718 586.874 450.329 586.057 449.62C585.239 448.911 584.707 447.93 584.557 446.858L573.875 372.969C573.342 369.284 573.291 365.546 573.724 361.848L584.136 272.873L650.634 278.457L640.598 362.762L678.564 410.102C679.293 411.007 679.643 412.161 679.539 413.319C679.436 414.477 678.887 415.55 678.008 416.311L668.45 424.636C668.001 425.027 667.48 425.325 666.916 425.512C666.352 425.7 665.756 425.775 665.163 425.731C664.57 425.687 663.992 425.526 663.462 425.258C662.931 424.989 662.459 424.618 662.073 424.166L626.099 382.069C620.53 375.535 616.522 367.82 614.38 359.507L609.244 339.478C609.164 339.165 608.985 338.887 608.734 338.684C608.484 338.481 608.174 338.365 607.852 338.352C607.53 338.338 607.212 338.429 606.946 338.611C606.68 338.793 606.479 339.055 606.373 339.36L599.58 358.983L603.878 445.415C603.934 446.601 603.52 447.762 602.725 448.645C601.931 449.529 600.82 450.062 599.633 450.131L589.261 450.707C589.174 450.712 589.088 450.714 589.002 450.714Z" fill="#2F2E41"/>
<path d="M625.954 152.642C639.519 152.642 650.515 141.645 650.515 128.081C650.515 114.516 639.519 103.52 625.954 103.52C612.39 103.52 601.393 114.516 601.393 128.081C601.393 141.645 612.39 152.642 625.954 152.642Z" fill="#A0616A"/>
<path d="M483.297 156.636C483.887 157.983 484.766 159.183 485.87 160.153C486.975 161.124 488.278 161.84 489.69 162.252C491.101 162.663 492.585 162.761 494.038 162.537C495.491 162.313 496.877 161.773 498.099 160.955L530.302 180.465L527.8 163.965L500.542 146.35C499.032 144.389 496.856 143.049 494.424 142.585C491.993 142.122 489.476 142.566 487.351 143.834C485.225 145.102 483.638 147.105 482.891 149.465C482.144 151.824 482.288 154.376 483.297 156.636V156.636Z" fill="#A0616A"/>
<path d="M624.813 289.856C611.768 289.857 598.193 285.81 584.465 277.827C583.446 277.235 582.668 276.301 582.271 275.191C581.873 274.081 581.882 272.866 582.295 271.762L595.064 237.355L592.159 196.815C591.171 183.024 598.046 169.934 609.674 163.465C613.845 161.125 618.493 159.762 623.268 159.479C628.042 159.197 632.818 160.002 637.236 161.834C641.974 163.829 646.198 166.873 649.589 170.738C652.98 174.602 655.449 179.186 656.812 184.144L660.911 198.404C665.882 215.847 665.31 234.403 659.273 251.506L647.398 284.847L647.09 285.031C647.009 285.08 638.86 289.855 624.813 289.856Z" fill="#CCCCCC"/>
<path d="M500.345 168.082C499.79 167.249 499.499 166.268 499.508 165.267C499.518 164.266 499.828 163.291 500.398 162.469L506.621 153.48C507.315 152.481 508.349 151.769 509.53 151.476C510.711 151.183 511.958 151.331 513.038 151.891L559.189 175.891L610.11 170.787C613.316 170.482 616.53 171.273 619.228 173.031C621.926 174.79 623.948 177.411 624.964 180.467C625.653 182.578 625.836 184.823 625.497 187.019C625.157 189.214 624.306 191.299 623.01 193.104C621.715 194.909 620.013 196.383 618.042 197.407C616.07 198.432 613.885 198.977 611.664 199L564.179 199.482C559.181 199.53 554.254 198.294 549.87 195.893L502.104 169.699C501.396 169.309 500.792 168.755 500.345 168.082V168.082Z" fill="#CCCCCC"/>
<path d="M647.12 311.838C648.275 310.929 649.217 309.777 649.878 308.464C650.54 307.152 650.906 305.71 650.95 304.24C650.994 302.771 650.715 301.31 650.134 299.96C649.552 298.609 648.681 297.403 647.583 296.426L659.576 263.411L643.037 266.922L632.832 297.73C631.313 299.684 630.563 302.127 630.725 304.597C630.887 307.067 631.949 309.391 633.71 311.13C635.471 312.869 637.809 313.902 640.28 314.032C642.752 314.163 645.186 313.382 647.12 311.838V311.838Z" fill="#A0616A"/>
<path d="M651.522 292.636C650.936 292.636 650.354 292.533 649.804 292.331L639.541 288.564C638.4 288.144 637.45 287.322 636.87 286.252C636.291 285.182 636.12 283.938 636.39 282.752L648.031 232.053L630.301 184.046C629.2 181.02 629.158 177.71 630.183 174.656C631.207 171.603 633.237 168.988 635.94 167.238C637.811 166.04 639.938 165.299 642.148 165.076C644.359 164.853 646.59 165.154 648.663 165.954C650.735 166.755 652.59 168.032 654.077 169.683C655.563 171.334 656.64 173.312 657.22 175.457L669.612 221.298C670.914 226.124 670.955 231.203 669.733 236.05L656.374 288.863C656.102 289.942 655.477 290.899 654.599 291.582C653.721 292.266 652.64 292.637 651.527 292.636H651.522V292.636Z" fill="#CCCCCC"/>
<path d="M627.576 145.411C628.822 140.243 629.437 137.342 630.671 132.171C631.497 128.708 629.004 125.162 625.876 123.543C622.747 121.925 619.121 121.739 615.625 121.397C612.13 121.054 608.463 120.443 605.739 118.195C602.082 115.176 601.036 109.553 602.835 105.131C603.801 102.957 605.275 101.047 607.132 99.5616C608.99 98.0761 611.178 97.0584 613.511 96.5943C618.194 95.7377 623.029 96.4821 627.238 98.7077C628.886 94.8341 633.664 93.1499 637.768 93.8257C641.873 94.5014 645.438 96.993 648.774 99.5115C654.978 104.195 661.343 109.873 662.72 117.594C664.05 125.05 660.268 132.575 655.209 138.149C648.306 145.729 639.045 150.755 628.927 152.411C628.253 151.391 627.787 150.247 627.555 149.046C627.323 147.845 627.33 146.61 627.576 145.411V145.411Z" fill="black"/>
</svg>