<svg width="927" height="601" viewBox="0 0 927 601" fill="none" xmlns="http://www.w3.org/2000/svg">
<g clip-path="url(#clip0)">
<path d="M904.301 600H22.6991C16.681 599.993 10.9113 597.591 6.65591 593.321C2.40048 589.05 0.00680165 583.26 0 577.221V31.6887C0.00490444 27.2642 1.75848 23.0223 4.876 19.8937C7.99352 16.765 12.2204 15.0051 16.6293 15H910.083C914.568 15.0051 918.868 16.7954 922.04 19.9782C925.211 23.1609 926.995 27.4762 927 31.9772V577.221C926.993 583.26 924.6 589.05 920.344 593.321C916.089 597.591 910.319 599.993 904.301 600V600Z" fill="#F2F2F2"/>
<path d="M875.19 571H54.8096C42.7837 571 33 561.788 33 550.466V75.229C33 66.8319 40.2499 60 49.1614 60H880.571C889.63 60 897 66.9445 897 75.4798V550.466C897 561.788 887.216 571 875.19 571Z" fill="white"/>
<path d="M926 34H0V22.5527C0.00871751 16.5716 2.40957 10.8381 6.67584 6.61016C10.9421 2.38218 16.7254 0.00495943 22.757 0H903.243C909.275 0.00490899 915.058 2.38211 919.324 6.61009C923.59 10.8381 925.991 16.5715 926 22.5527V34Z" fill="#3F3D56"/>
<path d="M41 23C44.3137 23 47 20.3137 47 17C47 13.6863 44.3137 11 41 11C37.6863 11 35 13.6863 35 17C35 20.3137 37.6863 23 41 23Z" fill="white"/>
<path d="M64 23C67.3137 23 70 20.3137 70 17C70 13.6863 67.3137 11 64 11C60.6863 11 58 13.6863 58 17C58 20.3137 60.6863 23 64 23Z" fill="white"/>
<path d="M86 23C89.3137 23 92 20.3137 92 17C92 13.6863 89.3137 11 86 11C82.6863 11 80 13.6863 80 17C80 20.3137 82.6863 23 86 23Z" fill="white"/>
<path d="M445.005 164H284.995C282.609 164 280.321 163.052 278.634 161.364C276.948 159.676 276 157.387 276 155C276 152.613 276.948 150.324 278.634 148.636C280.321 146.948 282.609 146 284.995 146H445.005C447.391 146 449.679 146.948 451.366 148.636C453.052 150.324 454 152.613 454 155C454 157.387 453.052 159.676 451.366 161.364C449.679 163.052 447.391 164 445.005 164V164Z" fill="#CCCCCC"/>
<path d="M644.955 164H484.045C481.646 164 479.346 163.052 477.649 161.364C475.953 159.676 475 157.387 475 155C475 152.613 475.953 150.324 477.649 148.636C479.346 146.948 481.646 146 484.045 146H644.955C647.354 146 649.654 146.948 651.351 148.636C653.047 150.324 654 152.613 654 155C654 157.387 653.047 159.676 651.351 161.364C649.654 163.052 647.354 164 644.955 164V164Z" fill="#CCCCCC"/>
<path d="M644.986 199H366.014C363.624 199 361.331 197.999 359.64 196.217C357.95 194.436 357 192.02 357 189.5C357 186.98 357.95 184.564 359.64 182.782C361.331 181.001 363.624 180 366.014 180H644.986C647.376 180 649.669 181.001 651.36 182.782C653.05 184.564 654 186.98 654 189.5C654 192.02 653.05 194.436 651.36 196.217C649.669 197.999 647.376 199 644.986 199Z" fill="#CCCCCC"/>
<path d="M445.944 129H285.034C282.637 128.997 280.339 128.048 278.645 126.36C276.951 124.673 276 122.385 276 120C276 117.615 276.951 115.327 278.645 113.64C280.339 111.952 282.637 111.003 285.034 111H445.944C447.132 110.999 448.31 111.23 449.408 111.682C450.507 112.134 451.506 112.796 452.347 113.632C453.188 114.468 453.855 115.461 454.31 116.553C454.766 117.646 455 118.817 455 120C455 121.183 454.766 122.354 454.31 123.447C453.855 124.539 453.188 125.532 452.347 126.368C451.506 127.204 450.507 127.866 449.408 128.318C448.31 128.77 447.132 129.001 445.944 129V129Z" fill="#CCCCCC"/>
<path d="M533.925 130H488.075C485.668 130 483.36 129.052 481.658 127.364C479.956 125.676 479 123.387 479 121C479 118.613 479.956 116.324 481.658 114.636C483.36 112.948 485.668 112 488.075 112H533.925C536.332 112 538.64 112.948 540.342 114.636C542.044 116.324 543 118.613 543 121C543 123.387 542.044 125.676 540.342 127.364C538.64 129.052 536.332 130 533.925 130Z" fill="#CCCCCC"/>
<path d="M330.914 199H285.063C282.659 198.997 280.353 197.995 278.654 196.213C276.955 194.432 276 192.018 276 189.5C276 186.982 276.955 184.568 278.654 182.787C280.353 181.005 282.659 180.003 285.063 180H330.914C332.107 179.998 333.288 180.243 334.39 180.72C335.493 181.197 336.494 181.896 337.338 182.778C338.182 183.661 338.851 184.708 339.308 185.862C339.765 187.015 340 188.251 340 189.5C340 190.749 339.765 191.985 339.308 193.138C338.851 194.292 338.182 195.339 337.338 196.222C336.494 197.104 335.493 197.803 334.39 198.28C333.288 198.757 332.107 199.002 330.914 199Z" fill="#CCCCCC"/>
<path d="M445.005 486H284.995C282.609 486 280.321 485.052 278.634 483.364C276.948 481.676 276 479.387 276 477C276 474.613 276.948 472.324 278.634 470.636C280.321 468.948 282.609 468 284.995 468H445.005C446.187 468 447.356 468.233 448.447 468.685C449.539 469.137 450.53 469.8 451.366 470.636C452.201 471.472 452.863 472.464 453.315 473.556C453.767 474.648 454 475.818 454 477C454 478.182 453.767 479.352 453.315 480.444C452.863 481.536 452.201 482.528 451.366 483.364C450.53 484.2 449.539 484.863 448.447 485.315C447.356 485.767 446.187 486 445.005 486V486Z" fill="#CCCCCC"/>
<path d="M644.955 486H484.045C481.646 486 479.346 485.052 477.649 483.364C475.953 481.676 475 479.387 475 477C475 474.613 475.953 472.324 477.649 470.636C479.346 468.948 481.646 468 484.045 468H644.955C646.143 468 647.319 468.233 648.416 468.685C649.514 469.137 650.511 469.8 651.351 470.636C652.191 471.472 652.857 472.464 653.311 473.556C653.766 474.648 654 475.818 654 477C654 478.182 653.766 479.352 653.311 480.444C652.857 481.536 652.191 482.528 651.351 483.364C650.511 484.2 649.514 484.863 648.416 485.315C647.319 485.767 646.143 486 644.955 486V486Z" fill="#CCCCCC"/>
<path d="M644.975 520H366.014C363.623 520 361.331 519.052 359.64 517.364C357.95 515.676 357 513.387 357 511C357 508.613 357.95 506.324 359.64 504.636C361.331 502.948 363.623 502 366.014 502H644.975C646.159 501.999 647.333 502.23 648.428 502.682C649.523 503.134 650.518 503.796 651.356 504.632C652.194 505.468 652.859 506.461 653.313 507.553C653.766 508.646 654 509.817 654 511C654 512.183 653.766 513.354 653.313 514.447C652.859 515.539 652.194 516.532 651.356 517.368C650.518 518.204 649.523 518.866 648.428 519.318C647.333 519.77 646.159 520.001 644.975 520Z" fill="#CCCCCC"/>
<path d="M445.005 451H284.995C282.609 451 280.321 450.052 278.634 448.364C276.948 446.676 276 444.387 276 442C276 439.613 276.948 437.324 278.634 435.636C280.321 433.948 282.609 433 284.995 433H445.005C447.391 433 449.679 433.948 451.366 435.636C453.052 437.324 454 439.613 454 442C454 444.387 453.052 446.676 451.366 448.364C449.679 450.052 447.391 451 445.005 451Z" fill="#CCCCCC"/>
<path d="M533.925 452H488.075C485.668 452 483.36 450.999 481.658 449.218C479.956 447.436 479 445.02 479 442.5C479 439.98 479.956 437.564 481.658 435.782C483.36 434.001 485.668 433 488.075 433H533.925C536.332 433 538.64 434.001 540.342 435.782C542.044 437.564 543 439.98 543 442.5C543 445.02 542.044 447.436 540.342 449.218C538.64 450.999 536.332 452 533.925 452V452Z" fill="#CCCCCC"/>
<path d="M330.916 520H285.073C282.667 520 280.359 519.052 278.657 517.364C276.956 515.676 276 513.387 276 511C276 508.613 276.956 506.324 278.657 504.636C280.359 502.948 282.667 502 285.073 502H330.916C332.108 501.999 333.289 502.23 334.391 502.682C335.493 503.134 336.495 503.796 337.339 504.632C338.182 505.468 338.852 506.461 339.308 507.553C339.765 508.646 340 509.817 340 511C340 512.183 339.765 513.354 339.308 514.447C338.852 515.539 338.182 516.532 337.339 517.368C336.495 518.204 335.493 518.866 334.391 519.318C333.289 519.77 332.108 520.001 330.916 520Z" fill="#CCCCCC"/>
<path d="M403.627 389C400.2 389.008 396.908 387.663 394.469 385.26L333.762 325.416C332.57 324.241 331.624 322.842 330.978 321.299C330.333 319.756 330 318.101 330 316.429C330 314.757 330.333 313.101 330.978 311.559C331.624 310.016 332.57 308.616 333.762 307.442L394.224 247.84C396.743 245.369 400.136 243.989 403.668 244C407.199 244.011 410.584 245.412 413.087 247.899C415.593 250.406 417 253.803 417 257.344C417 260.885 415.593 264.282 413.087 266.789L368.159 311.64C366.759 313.041 365.973 314.938 365.973 316.917C365.973 318.895 366.759 320.793 368.159 322.194L412.844 366.801C414.668 368.619 415.912 370.937 416.415 373.461C416.919 375.985 416.661 378.601 415.674 380.978C414.687 383.356 413.015 385.387 410.871 386.815C408.726 388.243 406.205 389.004 403.627 389V389Z" fill="#6C63FF"/>
<path d="M499.379 389C496.801 389.004 494.28 388.243 492.135 386.815C489.991 385.387 488.319 383.356 487.332 380.978C486.345 378.601 486.087 375.985 486.591 373.461C487.095 370.937 488.338 368.619 490.162 366.801L534.844 322.194C536.243 320.793 537.029 318.895 537.029 316.917C537.029 314.938 536.243 313.041 534.844 311.64L489.919 266.789C488.676 265.549 487.691 264.076 487.018 262.456C486.346 260.835 486 259.098 486 257.344C486 255.59 486.346 253.853 487.019 252.232C487.691 250.612 488.677 249.139 489.919 247.899V247.899C492.422 245.412 495.806 244.011 499.338 244C502.869 243.989 506.262 245.369 508.781 247.84L569.238 307.442C570.43 308.616 571.376 310.016 572.022 311.559C572.667 313.101 573 314.757 573 316.429C573 318.101 572.667 319.756 572.022 321.299C571.376 322.842 570.43 324.241 569.238 325.416L508.535 385.259C506.097 387.663 502.806 389.007 499.379 389Z" fill="#6C63FF"/>
</g>
<defs>
<clipPath id="clip0">
<rect width="926.622" height="600.085" fill="white"/>
</clipPath>
</defs>
</svg>